<svg xmlns="http://www.w3.org/2000/svg" width="16" height="16" viewBox="0 0 12 12"><path fill="#FCF0E2" d="M6.901 2.68c-.84.014-1.6.494-1.968 1.242l-.005.009a1.87 1.87 0 0 0-2.25 1.588l-.026.01a1.501 1.501 0 0 0-1.647 1.302A1.492 1.492 0 0 0 2.547 8.5h6.437v-.002a1.886 1.886 0 0 0 1.846-1.67 1.878 1.878 0 0 0-1.657-2.061h-.007a2.21 2.21 0 0 0-1.267-1.872 2.253 2.253 0 0 0-.998-.214Z" style="opacity:1;fill:#FCF0E2;fill-opacity:1;stroke:#FCF0E2;stroke-width:.60000002;stroke-linecap:round;stroke-linejoin:round;stroke-miterlimit:10;stroke-dasharray:none;stroke-opacity:1;paint-order:stroke fill markers"/></svg>