<svg viewBox="92.838 52.718 307.75 252.691" xmlns="http://www.w3.org/2000/svg"><path d="M831.947 280.063a1.347 1.347 0 0 0 1.084-2.288 40.528 40.528 0 0 1-.075-.371l.04-.086c1.205-2.512 4.676-2.779 6.25-.48.173.253.313.527.417.815.969 2.677 2.235 5.373 2.447 8.166a10.688 10.688 0 0 1-.359 3.669 42.9 42.9 0 0 0 4.729-17.625 41.32 41.32 0 0 0-.041-4.629 43.315 43.315 0 0 0-.416-3.77 43.426 43.426 0 0 0-7.745-18.783 11.55 11.55 0 0 1-4.569-5.204 8.844 8.844 0 0 1-.689-2.443c.232.041.469.071.702.098l.222.022.027.002a1.335 1.335 0 0 0 1.197-2.122l-.286-.386c-.144-.199-.293-.394-.437-.593-.017-.019-.032-.039-.047-.059l-.498-.676a3.858 3.858 0 0 1 1.321-1.164c1.814-.952 4.217-.122 5.419 1.535 1.205 1.657 1.342 3.91.805 5.885a15.474 15.474 0 0 1-2.36 4.667c.09.127.184.25.274.377a43.689 43.689 0 0 1 4.22 7.43 18.17 18.17 0 0 1 1.476-8.378c1.154-2.453 3.195-4.47 5.008-6.553 2.177-2.502 6.34-1.172 6.549 2.138l.005.096c-.261.132-.517.272-.768.422-1.205.727-1.171 2.485.06 3.166.163.09.339.154.522.191l.037.008a18.273 18.273 0 0 1-.605 2.694 18.73 18.73 0 0 1-9.86 11.29c-.153.069-.302.139-.455.205a44.565 44.565 0 0 1 1.873 11.398 42.278 42.278 0 0 1-.348 6.822l.015-.08a11.176 11.176 0 0 1 4.112-6.27c3.046-2.273 7.232-2.968 10.487-4.758 1.398-.808 3.147.2 3.148 1.815 0 .126-.011.25-.033.374l-.017.084a12.333 12.333 0 0 0-2.174 1.02c-1.205.727-1.172 2.485.06 3.166.163.09.339.155.521.191l.037.008.076.015a18.198 18.198 0 0 1-3.588 5.082 18.745 18.745 0 0 1-13.855 5.325h-.004a44.577 44.577 0 0 1-3.399 8.596l-10.689-.498c-.033-.121-.061-.245-.09-.365.986.108 1.982.095 2.966-.039-.748-1.01-1.496-2.027-2.243-3.037a.9.9 0 0 1-.048-.06c-.379-.517-.762-1.03-1.141-1.547v-.001a17.85 17.85 0 0 1 .732-4.507h.001zM616.574 187.632a1.348 1.348 0 0 1-1.223-2.216l.052-.375-.046-.084c-1.357-2.432-4.839-2.484-6.267-.092a3.58 3.58 0 0 0-.367.839c-.801 2.732-1.898 5.501-1.937 8.302a10.708 10.708 0 0 0 .585 3.64 42.915 42.915 0 0 1-5.81-17.3 41.492 41.492 0 0 1-.244-4.622 43.17 43.17 0 0 1 .182-3.789 43.433 43.433 0 0 1 6.57-19.226 11.552 11.552 0 0 0 4.239-5.476 8.834 8.834 0 0 0 .536-2.481 11.106 11.106 0 0 1-.914.176l-.028.005a1.336 1.336 0 0 1-1.325-2.044l.261-.404c.132-.207.268-.411.4-.618a.858.858 0 0 0 .043-.062l.456-.706a3.857 3.857 0 0 0-1.391-1.079c-1.869-.839-4.217.138-5.314 1.866-1.1 1.729-1.098 3.985-.439 5.924a15.449 15.449 0 0 0 2.643 4.512c-.082.132-.168.261-.25.393a43.68 43.68 0 0 0-3.753 7.677c0-2.876-.682-5.71-1.991-8.271-1.303-2.377-3.465-4.264-5.403-6.231-2.327-2.362-6.4-.778-6.404 2.539v.096c.269.115.533.24.793.374 1.247.65 1.323 2.407.136 3.163-.158.1-.329.175-.509.223l-.037.01c.19.902.447 1.788.771 2.651a18.725 18.725 0 0 0 10.538 10.66c.157.06.31.12.467.176a44.577 44.577 0 0 0-1.165 11.493c.073 2.279.33 4.549.769 6.787l-.02-.079a11.179 11.179 0 0 0-4.492-6.004c-3.18-2.081-7.401-2.515-10.761-4.101-1.445-.72-3.128.394-3.03 2.006.008.125.027.249.057.371l.022.083a12.25 12.25 0 0 1 2.233.884c1.247.651 1.323 2.408.136 3.163-.158.1-.329.176-.509.224l-.037.009-.075.02a18.217 18.217 0 0 0 3.896 4.85 18.737 18.737 0 0 0 14.158 4.459h.003a44.677 44.677 0 0 0 3.924 8.37l10.638-1.158c.025-.122.046-.248.067-.37-.977.169-1.972.218-2.962.145.684-1.054 1.367-2.116 2.051-3.17a.698.698 0 0 0 .043-.063c.347-.539.697-1.075 1.044-1.614v-.001a17.768 17.768 0 0 0-1.01-4.453v-.001z" style="fill:#39540b" transform="translate(-490.053 -86.996)"/><path d="M763.545 183.69a3.736 3.736 0 0 1 2.381 5.21l5.708 6.347-3.01 4.409-7.936-9.076c-2.522-1.414-2.566-5.028-.081-6.504a3.757 3.757 0 0 1 2.938-.386z" style="fill:#ffdbac" transform="translate(-490.053 -86.996)"/><path d="M816.988 199.274a7.47 7.47 0 0 0-10.297-2.439l-18.774 11.627-20.251-17.214-5.039 4.691 22.372 29.026 29.077-15.158c-.678.354 3.732-9.198 2.912-10.533z" style="fill:#0ea2e2" transform="translate(-490.053 -86.996)"/><path d="M779.796 237.937c.007 38.996-31.607 70.61-70.603 70.603-38.992 0-70.603-31.611-70.603-70.603a70.583 70.583 0 0 1 3.601-22.318c9.629-28.827 36.609-48.27 67.002-48.285a70.58 70.58 0 0 1 62.26 37.29 69.889 69.889 0 0 1 4.35 9.857v.004a68.181 68.181 0 0 1 1.71 5.585 70.632 70.632 0 0 1 2.283 17.867z" fill="#385e80" transform="translate(-490.053 -86.996)"/><path d="M701.468 190.302a23.688 23.688 0 0 0-20.796-.851c-2.908 1.266-5.969 3.536-6.939 7.635 3.923-2.315 9.001 1.343 10.011 7.211l-.236.065c-.533 4.065.657 8.49 2.961 11.011.303-2.618 2.024-4.4 3.718-5.513 1.693-1.113 3.566-1.922 4.858-3.835 1.532-2.268 1.921-5.583 2.53-8.606.608-3.024 1.763-6.274 3.893-7.117z" fill="#fff" transform="translate(-490.053 -86.996)"/><path d="M679.508 224.891c-1.086 1.632-2.537 2.656-3.84 3.93-1.298 1.279-2.533 3.005-2.792 5.221-.165 1.42.09 2.863.055 4.299-.036 1.435-.514 3.051-1.491 3.408-1.541.557-2.718-2.306-4.303-2.506-1.259-.157-2.392 1.824-2.028 3.542.365 1.718 2.079 2.479 3.064 1.357.89 1.494.263 4.205-1.075 4.664-.141.941-.282 1.879-.42 2.82-3.381-2.365-6.797-4.77-9.672-8.233a24.983 24.983 0 0 1-5.695-13.462c-.373-3.981.18-8.535-1.648-11.598-1.463-2.452-3.973-2.993-6.233-2.84-.411.028-.827.075-1.239.126a69.799 69.799 0 0 1 5.056-11.571c.46-.198.887-.464 1.267-.789 2.102-1.784 3.036-5.397 4.742-7.896.11-.16.224-.317.341-.47 1.746-2.279 4.083-3.452 6.343-4.542 5.001-2.428 10.147-4.888 15.426-4.55l-1.502.145c-1.753 4.911-3.508 9.821-5.264 14.732-.266.753-.536 1.508-.808 2.263-.996 2.793-2.024 5.766-1.871 8.892.091 1.852.734 3.829 1.958 4.464 1.141.588 2.388-.133 3.49-.847.467-.298.93-.596 1.397-.898 1.675-1.079 3.53-2.185 5.299-1.463 1.62.659 2.816 2.859 3.044 5.232a10.465 10.465 0 0 1-1.601 6.57zM689.47 258.418l-14.675-9.035.083-.214c-3.041 1.159-4.304 6.565-3.802 10.986.503 4.421 2.207 8.373 3.068 12.681a33.657 33.657 0 0 1-1.269 17.662 144.626 144.626 0 0 0 16.992-23.414 12.535 12.535 0 0 0 1.537-3.408c.311-1.284.263-2.827-.359-3.856a4.3 4.3 0 0 0-1.575-1.402z" fill="#fff" transform="translate(-490.053 -86.996)"/><path d="M670.164 203.625c-.519 1.168-.719 2.725-.248 3.933.482 1.234 1.499 1.792 2.436 2.256l2.703 1.34c.899.446 1.868.896 2.785.529 1.106-.442 1.872-2.175 1.674-3.784-.211-1.713-1.29-2.891-2.289-3.894l-4.19-4.21-.788.964a10.499 10.499 0 0 0-2.083 2.866zM765.306 221.93l3.648.859c-.212 4.106-2.247 7.907-4.977 9.284-1.138.573-2.405.784-3.346 1.855-.851.973-1.283 2.487-1.679 3.934l-2.083 7.578c-.745 2.722-1.702 5.747-3.64 6.727-1.663.844-3.565-.188-4.844-1.918-1.278-1.73-2.059-4.056-2.816-6.323.047 2.471-1.102 4.895-2.73 5.754-1.632.859-3.616.083-4.707-1.835-.784-1.377-1.11-3.193-1.879-4.589-.768-1.397-2.38-2.197-3.22-.887-.553.871-.482 2.204-.757 3.311-.427 1.718-1.722 2.796-3.004 2.89-1.279.095-2.526-.643-3.597-1.643-2.209-2.071-3.836-5.358-4.468-9.01-.278-1.628-.357-3.4.126-4.926.482-1.526 1.647-2.703 2.804-2.413.761-1.608-.741-3.741-2.094-3.553-1.358.188-2.42 1.643-3.534 2.761-1.11 1.118-2.664 1.93-3.782.82.008 1.031-.831 1.714-1.557 1.628-.722-.083-1.365-.663-2.028-1.075-2.561-1.596-5.813-.537-7.633 2.483 1.138-4.84 2.805-10.394 6.3-11.532 1.428-.467 2.985-.082 4.334-.89 2.389-1.432 2.871-6.841.808-9.073.263 2.11.212 4.574-.902 6.017-1.114 1.444-3.452.502-3.311-1.632-.321 1.471-1.922 1.695-2.659.565-.741-1.129-.679-2.977-.153-4.326.526-1.349 1.42-2.318 2.287-3.248 1.863-1.996 3.753-4.016 5.911-5.272 2.161-1.255 4.656-1.678 6.821-.431 1.141.659 2.145 1.757 3.31 2.338 1.165.584 2.644.51 3.417-.855.867-1.522.459-3.782.78-5.684.577-3.361 3.938-4.934 5.801-2.714-1.392-.357-2.832 1.29-3.004 3.287-.177 1.996.831 4.012 2.181 4.616 2.267 1.005 4.487-1.521 6.201-3.859 1.789-2.448 3.58-4.894 5.374-7.339.286-.416.608-.807.961-1.169a3.092 3.092 0 0 1 4.224-.086c1.812 1.479 2.663 4.511 4.15 6.597 2.157 3.032 5.385 3.77 8.39 4.358 2.239.435 4.48.873 6.723 1.314a69.74 69.74 0 0 1 3.903 8.618c-3.797 1.612-7.3 4.628-10.05 8.688zM772.547 269.124a70.31 70.31 0 0 1-5.844 9.778c-1.412-.604-2.93.475-4.252 1.487-1.381 1.059-3.04 2.09-4.456 1.125-1.447-.988-1.914-3.753-1.455-5.946.459-2.189 1.604-3.93 2.714-5.585 1.177-1.758 2.436-3.582 4.072-4.264 1.639-.683 3.745.282 4.224 2.612l1.161-.039c-.651-.894-.31-2.746.565-3.071 1.008-.381 1.883 1.004 2.479 2.228.266.553.537 1.11.792 1.675z" fill="#fff" transform="translate(-490.053 -86.996)"/><path d="M728.081 252.556c-2.496.157-4.472-2.915-5.786-5.938-1.314-3.022-2.512-6.478-4.764-8.016-1.286-.88-2.753-1-4.149-1.426-1.395-.426-2.856-1.307-3.523-3.102l-1.583-.64c-2.091 1.176-4.209 2.373-6.011 4.286a13.431 13.431 0 0 0-3.581 7.829c-.302 3.169.814 6.702 2.901 7.892 1.648.941 3.568.348 5.238 1.209 2.086 1.076 3.325 4.201 3.794 7.286.469 3.086.35 6.293.686 9.413.335 3.121 1.26 6.368 3.173 7.967 2.395 2.001 5.908.338 6.983-3.305.527-1.787.508-3.803.903-5.658.694-3.266 2.567-5.689 4.052-8.369 1.486-2.679 2.655-6.319 1.667-9.428zM703.421 220.459c.233.214.45.444.65.689a2.268 2.268 0 0 1-.04 2.341 2.18 2.18 0 0 0 1.56-.793 9.991 9.991 0 0 0 1.195-1.684c.255-.415.525-.976.353-1.469-.118-.336-.397-.48-.592-.733-.31-.401-.387-1.038-.547-1.588-.347-1.189-1.176-2.064-2.077-2.189l.125.024c-.376.129-.638.727-.555 1.264.076.489.39.896.359 1.395-.045.718-.763 1.055-.807 1.773-.007.36.128.708.376.97z" fill="#fff" transform="translate(-490.053 -86.996)"/><path d="m699.145 208.26.012-.002a2.08 2.08 0 0 0 .213-.227l-.225.229z" fill="#e6e6e6" transform="translate(-490.053 -86.996)"/><path d="M699.894 211.629c.552-.354.86-1.336.677-2.157-.181-.816-.823-1.365-1.414-1.214a1.44 1.44 0 0 1-1.341.394c-.366-.094-.768-.336-1.085-.061a1.64 1.64 0 0 0-.37.722l-.352 1.082a.684.684 0 0 0-.042.409.346.346 0 0 0 .267.212l2.114.623c.513.152 1.068.298 1.546-.01zM753.098 258.148l-.978-1.6a5.332 5.332 0 0 0-1.288-1.617 1.14 1.14 0 0 0-1.624.163l.04.305c.742.931 1.528 1.966 1.716 3.349.074.545.048 1.109.114 1.656.065.548.25 1.116.603 1.352.513.342 1.115-.163 1.481-.78a2.684 2.684 0 0 0 .415-1.707 2.988 2.988 0 0 0-.479-1.121z" fill="#fff" transform="translate(-490.053 -86.996)"/><path d="m767.596 237.779.283-1.854c.153-.679.172-1.38.056-2.066a1.141 1.141 0 0 0-1.348-.922l-.166.259c-.031 1.19-.097 2.488-.843 3.667-.294.465-.677.88-.98 1.341-.303.461-.527 1.014-.408 1.422.171.593.958.594 1.634.357a2.685 2.685 0 0 0 1.418-1.038 3 3 0 0 0 .354-1.166z" fill="#e6e6e6" transform="translate(-490.053 -86.996)"/><path d="M758.208 258.842c.159-.457-.071-.983-.119-1.489a3.275 3.275 0 0 1 .497-1.853 6.02 6.02 0 0 0 .775-1.699 1.422 1.422 0 0 0-.037-.832c-.108-.243-.369-.353-.519-.161l.321.206a2.918 2.918 0 0 0-1.301.063c-.49.188-.858.603-.986 1.112a6.89 6.89 0 0 1-.259 1.153c-.191.393-.561.524-.794.869a2.078 2.078 0 0 0 .033 1.974c.292.491.756.856 1.303 1.024.391.141.907.148 1.086-.367zM767.309 261.588c.141.369.331.717.564 1.035.435.439 1.028.169 1.556.063.977-.155 1.96.24 2.56 1.026a6.517 6.517 0 0 0-3.747-4.675c-1.246-.508-2.559-.557-3.855-.603l-.223.058c.57 1.66 2.361 1.623 3.145 3.096z" fill="#fff" transform="translate(-490.053 -86.996)"/><path d="m728.764 264.984.003.007.065-.125-.068.118z" fill="#e6e6e6" transform="translate(-490.053 -86.996)"/><path d="M727.383 267.656c-.301.547-.56 1.116-.775 1.702a14.783 14.783 0 0 0-.561 2.911c-.07.561-.092 1.278.26 1.551a.498.498 0 0 0 .652-.088c.195-.207.355-.444.473-.703a16.185 16.185 0 0 0 1.596-3.789c.337-1.396.334-3.04-.261-4.249l-1.384 2.665z" fill="#fff" transform="translate(-490.053 -86.996)"/><path d="M714.064 196.459a1.573 1.573 0 0 0 1.694.331 5.586 5.586 0 0 0 1.594-1.053c.386-.286.714-.644.966-1.054a2.14 2.14 0 0 0 .198-1.629c-.219-.638-.773-.852-1.261-.997l-2.347-.696.566-.51c-.582-.312-1.226.268-1.59.985-.234.469-.396.97-.483 1.486-.195 1.127-.004 2.469.663 3.137zM727.874 191.823a1.293 1.293 0 0 0 1.762.143c.447-.336.73-.846.779-1.403.055-.615-.249-1.299-.684-1.352l.1-.577c-.837-.151-1.867-.181-2.316.836a2.387 2.387 0 0 0 .359 2.353z" fill="#e6e6e6" transform="translate(-490.053 -86.996)"/><path d="M726.03 161.187c-10.219-1.153-19.437 6.197-20.59 16.415-1.153 10.219 4.231 32.409 14.046 41.595 4.621-17.599 20.816-28.038 22.959-37.42 2.29-10.026-6.197-19.437-16.415-20.59z" style="fill:#3f802b" transform="translate(-490.053 -86.996)"/><circle data-name="b262ea8c-1946-46c9-a449-3a1996c39394" cx="722.636" cy="177.832" r="6.073" fill="#fff" transform="translate(-490.053 -86.996)"/><circle data-name="bcc29a3a-8123-4529-80aa-6f70df2823cf" cx="716.251" cy="223.975" r="3.977" style="fill:#3f802b" transform="translate(-490.053 -86.996)"/><path d="M727.66 173.481c4.007 2.408 3.905 8.25-.184 10.516a6.072 6.072 0 0 1-6.071-.106c4.562 1.015 8.512-3.29 7.11-7.748a6.07 6.07 0 0 0-2.669-3.386c.64.142 1.252.387 1.814.724z" fill="#231f20" opacity=".2" style="isolation:isolate" transform="translate(-490.053 -86.996)"/><path d="M742.469 181.796c-2.143 9.383-18.338 19.821-22.959 37.421a25.847 25.847 0 0 1-2.565-2.81c5.193-16.543 20.38-26.595 22.45-35.66 1.853-8.113-3.352-15.824-10.821-19.081 9.041 2.272 15.993 10.943 13.895 20.13z" fill="#231f20" opacity=".2" style="isolation:isolate" transform="translate(-490.053 -86.996)"/><path d="M669.124 184.881c-7.674-.865-14.597 4.654-15.463 12.328-.865 7.673 3.178 24.338 10.549 31.236 3.47-13.217 15.632-21.056 17.241-28.102 1.719-7.528-4.654-14.596-12.327-15.462z" style="fill:#3f802b" transform="translate(-490.053 -86.996)"/><circle data-name="b262ea8c-1946-46c9-a449-3a1996c39394" cx="666.575" cy="197.381" r="4.56" fill="#fff" transform="translate(-490.053 -86.996)"/><circle data-name="bcc29a3a-8123-4529-80aa-6f70df2823cf" cx="661.78" cy="232.033" r="2.987" style="fill:#3f802b" transform="translate(-490.053 -86.996)"/><path d="M670.348 194.114c3.009 1.808 2.932 6.195-.138 7.897a4.56 4.56 0 0 1-4.559-.08c3.426.762 6.392-2.47 5.339-5.819a4.56 4.56 0 0 0-2.004-2.542c.48.107.94.29 1.362.544z" fill="#231f20" opacity=".2" style="isolation:isolate" transform="translate(-490.053 -86.996)"/><path d="M681.469 200.358c-1.609 7.046-13.771 14.885-17.242 28.101a19.34 19.34 0 0 1-1.926-2.11c3.9-12.423 15.305-19.972 16.86-26.779 1.391-6.093-2.518-11.883-8.127-14.329 6.79 1.706 12.011 8.218 10.435 15.117z" fill="#231f20" opacity=".2" style="isolation:isolate" transform="translate(-490.053 -86.996)"/><path style="fill:#ffdbac" transform="translate(-490.053 -86.996)" d="M811.896 350.079h-5.007l-2.382-19.312h7.39l-.001 19.312z"/><path d="M814.59 359.587h-3.553l-.634-3.355-1.625 3.355h-9.423c-1.63 0-2.65-1.765-1.834-3.178.157-.272.372-.505.631-.684l7.525-5.197v-3.391l7.915.473.998 11.977z" fill="#2f2e41" transform="translate(-490.053 -86.996)"/><path style="fill:#ffdbac" transform="translate(-490.053 -86.996)" d="M792.502 350.079h-5.006l-2.382-19.312h7.39l-.002 19.312z"/><path d="M795.196 359.587h-3.553l-.634-3.355-1.624 3.355h-9.423c-1.631 0-2.65-1.765-1.835-3.178.157-.272.373-.505.631-.684l7.525-5.197v-3.391l7.915.473.998 11.977zM773.48 299.089c.959 1.437 11.382 40.948 11.382 40.948l9.243 1.054-1.097-9.941-1.677-17.592-2.596-11.743s9.169-20.869 9.749-22.531l.412-1.193 2.865 26c.34.928.489 1.916.436 2.903-.086 1.624 1.543 26.058 1.543 26.058l.783 8.762 7.919 1.1 3.213-15.161c2.682-4.925 1.145-22.426.047-24.055-1.097-1.629-.661-12.974-.661-12.974 1.401-.493 9.755-28.98 5.577-28.812.268-1.519.479-2.875.479-2.875l-7.253-5.849-18.153-4.719-4.58-2.199s-8.179 15.124-8.098 15.877a4.179 4.179 0 0 1-.618 2.726l-8.258 27.638s-1.624 5.127-.657 6.578z" fill="#2f2e41" transform="translate(-490.053 -86.996)"/><path d="m819.086 200.188-2.888-6.132-9.829.378-3.206 6.379s-9.162 10.943-9.459 14.502c-.373 4.475 2.727 26.409-.373 24.987 0 0-7.307 8.578-2.983 8.578s23.884 12.279 25.168 13.66c1.283 1.381 7.013 2.276 6.533-.606-.481-2.883-2.963-18.474-2.963-18.474l6.72-24.515c1.934-5.293 2.536-11.23-1.836-14.785l-4.884-3.972z" style="fill:#0ea2e2" transform="translate(-490.053 -86.996)"/><path d="M782.679 182.142c-5.529-2.195-11.791.508-13.985 6.037-2.195 5.529-2.559 18.732 1.525 25.35 5.252-9.122 15.876-12.49 18.497-17.402 2.8-5.249-.508-11.791-6.037-13.985z" style="fill:#3f802b" transform="translate(-490.053 -86.996)"/><circle data-name="b262ea8c-1946-46c9-a449-3a1996c39394" cx="778.257" cy="190.917" r="3.513" fill="#fff" transform="translate(-490.053 -86.996)"/><circle data-name="bcc29a3a-8123-4529-80aa-6f70df2823cf" cx="767.688" cy="215.705" r="2.301" style="fill:#3f802b" transform="translate(-490.053 -86.996)"/><path d="M781.722 189.252c1.87 1.954.922 5.198-1.705 5.84a3.514 3.514 0 0 1-3.367-.979c2.393 1.259 5.251-.544 5.146-3.246a3.516 3.516 0 0 0-.976-2.295c.335.177.64.406.902.68z" fill="#231f20" opacity=".2" style="isolation:isolate" transform="translate(-490.053 -86.996)"/><path d="M788.726 196.141c-2.62 4.912-13.245 8.28-18.496 17.403a14.878 14.878 0 0 1-1.005-1.958c5.41-8.446 15.413-11.751 17.945-16.497 2.266-4.248.531-9.342-3.144-12.294 4.702 2.641 7.266 8.537 4.7 13.346z" opacity=".2" style="isolation:isolate;fill:#3f802b" transform="translate(-490.053 -86.996)"/><path d="M766.651 214.913a3.735 3.735 0 0 1 4.488 3.559l7.97 3.059-.678 5.296-11.194-4.478c-2.889-.114-4.571-3.313-3.027-5.758a3.755 3.755 0 0 1 2.441-1.678z" style="fill:#ffdbac" transform="translate(-490.053 -86.996)"/><path d="M822.335 203.999a7.47 7.47 0 0 0-10.281 2.505l-11.438 18.89-25.863-6.13-2.357 6.468 33.121 15.689 16.774-26.717c2.511-3.53 3.741-8.448.044-10.705z" style="fill:#0ea2e2" transform="translate(-490.053 -86.996)"/><path d="M822.762 180.849c.003 8.562-9.263 13.916-16.68 9.638-6.263-3.613-7.468-12.147-2.451-17.353l.054-.053a7.846 7.846 0 0 1 .276-.281c.115-.106.231-.213.351-.315 6.437-5.643 16.568-2.203 18.237 6.193.142.715.213 1.442.213 2.171z" fill="#2f2e41" transform="translate(-490.053 -86.996)"/><circle cx="808.899" cy="183.422" r="9.327" style="fill:#ffdbac" transform="translate(-490.053 -86.996)"/><path d="m818.803 186.082-1.545-.273a4.308 4.308 0 0 1-3.47-3.475l-1.508 2.527-.066.022c-3.592 1.193-7.33.836-11.425-1.089a32.105 32.105 0 0 1-3.4-1.875l-.081-.051-.007-.095c-.208-3.034.472-5.568 1.918-7.137a5.75 5.75 0 0 1 4.339-1.808.373.373 0 0 0 .154-.086l.062-.044v-.016l.107-.05c.23-.109.465-.212.699-.307a10.518 10.518 0 0 1 10.983 2.129c2.873 2.743 4.191 7.345 3.279 11.454l-.039.174z" fill="#2f2e41" transform="translate(-490.053 -86.996)"/><path d="M838.475 194.028c-3.173-1.638.908-7.584.088-11.06-.82-3.476-6.727-4.594-7.103-8.146-.376-3.552-1.261-7.215-3.605-9.91-1.498-1.722-3.705-2.994-5.977-2.778a5.373 5.373 0 0 0-4.709 6.636c-.647-.917-2.321-.718-2.736.324-.368.927.446 2.05 1.403 2.132 1.254 1.548 2.689 3.19 4.652 3.503.634.145 1.3-.009 1.806-.417.462-.444.498-1.331-.05-1.662 2.467.98 3.914 3.648 4.28 6.278.366 2.629-.141 5.29-.474 7.924-.334 2.634-.478 5.405.555 7.851 1.22 2.89 4.029 4.961 7.095 5.625 3.066.664 6.331.015 9.106-1.447 2.776-1.463 5.09-3.696 6.98-6.2-3.256 2.313-7.762 3.179-11.311 1.347z" fill="#2f2e41" transform="translate(-490.053 -86.996)"/><path d="M818.407 185.823s-2.763-10.313-14.607-12.693a2.826 2.826 0 0 1-.115-.049 1.305 1.305 0 0 0-.125-.067 8.92 8.92 0 0 1 .401-.214c.115-.106.231-.213.351-.315l.338.013s11.884-1.882 13.757 13.325z" style="fill:#0ea2e2" transform="translate(-490.053 -86.996)"/><path opacity=".2" transform="translate(-490.053 -86.996)" d="m812.221 218.914-6.689 7.749-11.053-3.264 12.049 5.553 5.693-10.038z"/><path d="M856.884 291.16c-4.816 0-10.094-.182-15.834-.546-29.693-1.886-68.153-8.441-108.297-18.458-40.143-10.018-77.175-22.301-104.271-34.586-13.2-5.984-23.331-11.649-30.111-16.838-7.178-5.492-10.318-10.28-9.332-14.229 1.919-7.693 18.92-9.376 32.843-9.434l.005 1.119c-19.121.079-30.401 3.128-31.763 8.586-1.735 6.952 12.415 17.805 38.82 29.777 27.037 12.258 64 24.518 104.08 34.519 40.08 10.002 78.47 16.546 108.097 18.427 28.933 1.838 46.523-1.095 48.257-8.047 1.441-5.772-8.055-14.275-26.736-23.943l.514-.994c13.574 7.025 29.331 17.101 27.308 25.208-.985 3.949-6.006 6.7-14.924 8.176-5.083.841-11.326 1.263-18.656 1.263z" style="fill:#3f802b" transform="translate(-490.053 -86.996)"/><path d="M160.937 305.227h-19.326a5.724 5.724 0 0 1-5.718-5.718v-1.748a.265.265 0 0 1-.336-.259v-1.343a.266.266 0 0 1 .336-.259v-2.034a.266.266 0 0 1-.336-.26v-3.357a.266.266 0 0 1 .336-.26v-1.227a.267.267 0 0 1-.336-.26v-3.358a.265.265 0 0 1 .336-.259V249.42a5.724 5.724 0 0 1 5.718-5.718h19.326a5.724 5.724 0 0 1 5.718 5.718v50.089a5.724 5.724 0 0 1-5.718 5.718zm4.509-55.807a4.515 4.515 0 0 0-4.509-4.509h-19.326a4.515 4.515 0 0 0-4.509 4.509v50.089a4.515 4.515 0 0 0 4.509 4.509h19.326a4.515 4.515 0 0 0 4.509-4.509V249.42z" fill="#3f3d56" transform="rotate(180 151.106 274.464)"/><path d="M160.6 244.239h-19.326a5.186 5.186 0 0 0-5.18 5.181v50.089a5.187 5.187 0 0 0 5.18 5.181H160.6a5.189 5.189 0 0 0 5.181-5.181V249.42a5.188 5.188 0 0 0-5.181-5.181z" fill="#e6e6e6" transform="rotate(180 150.938 274.465)"/><path d="M161.078 245.046h-20.28a3.5 3.5 0 0 0-3.495 3.495v51.849a3.498 3.498 0 0 0 3.495 3.494h2.645a.578.578 0 0 0 .577-.577 1.708 1.708 0 0 1 1.706-1.706h10.155a1.707 1.707 0 0 1 1.706 1.706.579.579 0 0 0 .578.577h2.913a3.498 3.498 0 0 0 3.495-3.494v-51.849a3.5 3.5 0 0 0-3.495-3.495z" fill="#fff" transform="rotate(180 150.938 274.465)"/><path d="M152.483 245.684h-2.418a.268.268 0 1 0 0 .537h2.418a.269.269 0 0 0 0-.537z" fill="#fff" transform="rotate(180 151.274 245.952)"/><circle cx="-148.385" cy="246.02" r=".134" fill="#fff" transform="scale(-1 1)"/><path fill="#e6e6e6" transform="scale(-1 1)" d="M-165.253 255.54h28.603v.306h-28.603zM-165.253 261.663h28.603v.306h-28.603zM-165.253 274.317h28.603v.306h-28.603zM-165.253 286.971h28.603v.306h-28.603zM-165.253 296.87h28.603v.306h-28.603z"/><path fill="#e6e6e6" transform="scale(-1 1)" d="M-144.787 255.693h.306v18.777h-.306zM-159.105 274.464h.306v22.558h-.306z"/><path fill="#e6e6e6" transform="scale(-1 1)" d="M-158.953 280.652h21.65v.306h-21.65zM-144.754 297.023h.306v6.861h-.306zM-164.624 268.116h19.939v.306h-19.939z"/><path transform="scale(-1 1) rotate(-22.709 547.105 406.018)" fill="#e6e6e6" d="M-43.696-15.808h.306V-4.12h-.306z"/><path fill="#e6e6e6" transform="scale(-1 1)" d="M-146.87 247.329h.306v8.364h-.306z"/><path d="M150.303 265.633c0-2.743-4.241-9.136-5.481-10.945a.407.407 0 0 0-.672 0c-1.24 1.809-5.481 8.202-5.481 10.945 0 4.478 4.847 7.276 8.725 5.037a5.816 5.816 0 0 0 2.909-5.037z" style="fill:#3f802b" transform="rotate(180 144.486 262.985)"/><circle cx="-144.486" cy="259.928" r="2.959" fill="#fff" transform="scale(-1 1)"/><path transform="scale(-1 1) rotate(-63.412 188.789 214.147)" fill="#e6e6e6" d="M-39.526-57.019h25.041v.306h-25.041z"/><path d="M123.983 277.395a1.026 1.026 0 0 1 1.461.585l3.646.063-1.07 1.564-3.298-.301a1.032 1.032 0 0 1-.739-1.911z" style="fill:#ffdbac" transform="rotate(180 126.261 278.44)"/><path d="M122.519 276.448a.418.418 0 0 0-.418.437l.074 1.672a.416.416 0 0 0 .37.397l4.224.484-.142-2.786-4.087-.204h-.021z" style="fill:#0ea2e2" transform="rotate(180 124.435 277.943)"/><path fill="#ffb8b8" transform="rotate(180 122.833 300.256)" d="m124.459 298.156-1.189-.388-2.064 4.403 1.755.573 1.498-4.588z"/><path d="m124.454 303.121-3.834-1.253-.016.049a1.57 1.57 0 0 0 1.004 1.98h.001l2.342.765.503-1.541z" fill="#2f2e41" transform="rotate(180 122.49 303.265)"/><path fill="#ffb8b8" transform="rotate(180 118.625 301.783)" d="M119.548 299.37h-1.251l-.595 4.826h1.847l-.001-4.826z"/><path d="M121.418 303.788h-4.034v.051c0 .868.703 1.57 1.57 1.57h2.464v-1.621z" fill="#2f2e41" transform="rotate(180 119.401 304.599)"/><path d="M124.574 282.768a.418.418 0 0 0-.415.369l-1.614 13.485-2.36-3.79 2.77-7.08a.42.42 0 0 0-.206-.528l-2.35-1.151a.419.419 0 0 0-.581.245l-2.605 7.868a3.336 3.336 0 0 0-.073 1.834l1.684 6.911.019.011 3.796 2.08.022-.009 4.471-1.631-.468-8.86.34-9.195a.416.416 0 0 0-.393-.433l-2.011-.125-.026-.001z" fill="#2f2e41" transform="rotate(180 122.089 292.895)"/><path d="M119.543 271.236c-.667 0-1.231.191-1.582.674l-.012.016.228 2.39-2.026-1.124a.235.235 0 0 0-.334.288l2.527 6.71 1.669 5.467a2.196 2.196 0 0 0 1.771 1.754c1.487.274 2.372-.228 3.394-1.341.501-.549.72-1.298.594-2.031l-.967-5.527.284-4.955a.416.416 0 0 0-.181-.456c-.79-.503-3.214-1.864-5.365-1.865z" style="fill:#0ea2e2" transform="rotate(180 120.804 279.36)"/><circle cx="-118.684" cy="267.975" r="2.507" style="fill:#ffdbac" transform="scale(-1 1)"/><path d="M116.935 281.386c.58.266.779.993.415 1.518l2.149 2.945-1.892.09-1.751-2.811a1.032 1.032 0 0 1 1.079-1.742z" style="fill:#ffdbac" transform="rotate(180 117.483 283.614)"/><path d="M115.624 272.525a.424.424 0 0 0-.299.071l-1.423.992a.417.417 0 0 0-.125.548l2.533 4.509-2.548 3.066a1.509 1.509 0 1 0 2.473 1.708l2.814-4.966a.235.235 0 0 0-.001-.231l-3.12-5.489a.417.417 0 0 0-.304-.208z" style="fill:#0ea2e2" transform="rotate(180 116.246 278.352)"/><path d="M117.321 267.483c-.248.185-.591.156-.885.254a1.05 1.05 0 0 0-.372 1.781c.317.284.769.349 1.192.401.579.071 1.165.143 1.746.086.581-.057 1.166-.253 1.591-.654.468-.442.699-1.099.701-1.743a3.876 3.876 0 0 0-.517-1.84c-.1-.214-.25-.399-.438-.541-.195-.129-.471-.163-.659-.023-.163.12-.223.331-.296.52-.074.188-.199.39-.4.418-.257.038-.454-.224-.701-.31-.344-.12-.726.145-.867.482-.14.336-.104.717-.064 1.08" fill="#2f2e41" transform="rotate(180 118.504 267.57)"/><circle cx="-144.486" cy="274.419" r="1.327" style="fill:#3f802b" transform="scale(-1 1)"/></svg>