<svg width="166" height="166" fill="none" xmlns="http://www.w3.org/2000/svg"><g clip-path="url(#a)"><path fill-rule="evenodd" clip-rule="evenodd" d="M78.764 102.909c-.12-.066-.173-.251-.292-.317-.132.238-.198.358-.145.543.04.49-.039.914-.303 1.391-.066.119-.08.424-.026.609.08.98.28 2.026.36 3.006.094.676.306 1.416.148 2.264-.066.12.04.491.094.676.053.185.106.371.093.676-.131 1.642.665 3.018.786 4.488.331.807.597 1.734.929 2.541.385.993.65 1.92.916 2.846.385.993.585 2.039.97 3.032l.16.556c.08.98.411 1.787.611 2.833.2 1.046.519 2.158.718 3.204.16.556.015 1.099.055 1.589.133 1.165.267 2.33.585 3.442.094.676.068 1.284.161 1.96-.09 2.132.123 4.277.456 6.488.106.371.147.861.253 1.231.053.186.225.437.16.556-.212.663.186 1.351.597 1.735.702.701 1.1 1.389 1.366 2.316.399.687 1.168 1.269 1.817 1.785l.358.198c.424.08.967.224 1.39.304.12.066.425.079.61.025.424.08.794-.027 1.404-.001l.754-.516c.251-.173.503-.345.874-.451.807-.332 1.561-.849 2.541-.929.623-.279 1.297-.372 1.867-.836.688-.398 1.363-.492 2.051-.89.689-.397 1.364-.491 2.039-.584.371-.107.861-.147 1.059-.505.926-.265 1.8-.717 2.567-1.538.252-.173.623-.279.874-.451 1.244-.557 2.25-1.247 3.494-1.804.437-.226.808-.332 1.364-.492.185-.053.37-.106.622-.279.384-.411 1.006-.689 1.442-.915.186-.053.252-.172.437-.225.648-.888 1.588-1.459 2.475-2.215 1.018-.994 1.971-1.869 2.698-3.18.132-.239.317-.292.449-.53.384-.411.768-.822 1.085-1.114.516-.649 1.085-1.113 1.72-1.696.688-.398 1.204-1.048 1.481-1.829l.331-.596c.132-.238.079-.424.026-.609a2.303 2.303 0 0 0-.994-1.019c-.782-.277-1.564-.555-2.49-.289-1.099.014-2.026.28-3.031.969-.186.053-.437.226-.623.279-.622.279-1.244.557-1.813 1.022-.437.225-.754.517-1.31.676-.371.107-.622.279-.754.517-.199.358-.45.53-.887.756-.437.225-.754.516-1.072.808-.569.464-1.204 1.048-1.773 1.512-.635.583-1.204 1.047-1.892 1.445-1.006.689-2.13 1.313-3.071 1.883-.185.053-.251.173-.437.226-.767.821-1.879 1.141-2.819 1.711 0 0-.119-.066-.304-.013l-.054-.186c.146-.543.291-1.086.489-1.444.661-1.192.964-2.583 1.506-3.842.475-1.139.646-2.291 1.122-3.43.132-.239.079-.424.211-.662.158-.848.436-1.63.594-2.477a6.65 6.65 0 0 0 .25-1.576c.026-.609.237-1.271.382-1.815.277-.781.501-1.749.541-2.662.224-.967.144-1.947-.003-2.807-.147-.861-.054-1.589.103-2.437.224-.966.145-1.946.249-2.979.026-.61.105-1.033.065-1.523-.027-.794.065-1.523.038-2.317-.028-2.199-.057-4.396-.271-6.542-.04-.49-.027-.794-.252-1.231-.319-1.111-.334-2.211-.652-3.323-.213-.741-.24-1.535-.267-2.33-.015-1.1-.148-2.265-.467-3.376-.265-.927-.293-1.722-.44-2.582-.146-.86-.292-1.721-.744-2.595l-.358-.199c-.768-.582-.994-1.019-.531-1.853l.198-.358-.159-.556.198-.358-.159-.556c-.053-.186-.107-.371-.041-.49.199-.359.212-.663.105-1.034-.106-.37-.147-.86-.252-1.23-.558-1.245-.811-2.476-1.183-3.773l-.478-1.669c-.106-.37-.279-.622-.266-.926-.106-.37-.278-.622-.265-.926.026-.61-.253-1.231-.532-1.853-.385-.993-.955-1.933-1.155-2.979-.053-.185-.106-.37-.225-.437-.69-1.005-1.247-2.25-1.686-3.428-.225-.437-.45-.873-.742-1.19-.292-.318-.53-.45-.822-.768-.172-.251-.213-.742-.319-1.112-.279-.622-.623-1.124-.968-1.627-.862-1.257-1.658-2.634-2.586-3.772-.636-.82-1.273-1.64-1.79-2.395-.464-.569-1.113-1.085-1.697-1.72-.172-.25-.41-.383-.397-.688-.107-.37-.213-.741-.57-.94-.941-.833-1.75-1.904-2.506-2.79-1.047-1.205-2.094-2.409-3.208-3.494a.868.868 0 0 0-.715-.396 1.89 1.89 0 0 1-1.073-.595 2.657 2.657 0 0 0-1.788-.992c-.305-.013-.544-.145-.901-.343-.994-1.019-2.306-1.746-3.234-2.883-.173-.252-.53-.45-.703-.702-.768-.582-1.351-1.217-1.935-1.851-.172-.252-.41-.384-.702-.702-.292-.317-.65-.515-.94-.833-.412-.384-.822-.767-1.419-1.098l-.715-.396c-.715-.397-1.365-.913-2.266-1.256l-1.073-.595c-.768-.582-1.603-1.045-2.57-1.269-.662-.21-1.206-.356-1.736-.806-.358-.198-.715-.397-1.14-.476l-.185.053c-.066.12-.132.24-.013.305.715.394.954.526 1.192.659l1.073.594s.12.066.053.186l-.066.12c-.185.052-.424-.08-.543-.146-.596-.33-1.378-.608-2.04-.819-.239-.132-.596-.33-.9-.343-.359-.199-.597-.33-1.02-.41-.663-.21-1.206-.356-1.803-.687l-.238-.132c-.477-.264-1.086-.29-1.683-.62-.41-.384-1.073-.596-1.55-.86-1.312-.727-2.822-1.096-4.212-1.4l-.914-.039c-.371.107-.86.147-1.231.253-.424-.08-.847-.158-1.218-.052.053.185.053.185.172.252 1.074.595 2.345.831 3.484 1.307 1.02.41 1.921.753 2.81 1.401.53.45 1.245.846 1.841 1.177.477.264 1.073.595 1.484.978a7.776 7.776 0 0 0 3.1 1.719c.662.21 1.14.476 1.736.806.358.198.834.463 1.259.542.238.132.358.198.543.145 1.046-.2 1.749.501 2.464.898.477.264.954.529 1.365.912.238.133.358.199.53.45.344.503.821.767 1.113 1.085.292.318.649.516 1.073.595.12.066.239.132.292.318.517.754 1.166 1.27 1.816 1.785.768.582 1.537 1.164 2.24 1.866.821.767 1.709 1.415 2.531 2.182 1.286 1.337 2.518 2.487 3.738 3.943.292.317.517.754.743 1.19.106.371.279.623.57.94.292.318.464.57.385.993-.013.304.04.49.213.741.212.742.49 1.364.889 2.052.053.186.172.252.225.437.637.82 1.022 1.813 1.592 2.753.173.252.16.557-.038.914-.199.358-.026.61.08.98.12.066.053.185.173.251 1.273 1.64 2.109 3.507 3.13 5.32 1.14 1.88 2.03 3.932 2.919 5.983.053.186.226.438.279.623.359 1.602 1.089 3.097 1.633 4.647.053.185.106.37.225.437.479 1.668 1.142 3.282 1.62 4.95.48 1.668.838 3.27 1.13 4.992.187 1.35.44 2.581.812 3.879-.066.12.053.185-.013.305.308 2.82.985 5.534.988 8.341.359 1.602.228 3.244.216 4.953.015 1.099.148 2.264.348 3.31.16.556.133 1.165-.012 1.708-.17 1.152-.276 2.185-.447 3.338-.118 1.338-.355 2.609-.168 3.959.028.795-.131 1.642-.29 2.49-.078.424-.09.728-.17 1.152-.065 1.523-.315 3.099-.803 4.543l-.91 4.172-.199.358s-.066.12-.185.053l-.12-.066c-.053-.185-.172-.251-.225-.437-.372-1.297-.81-2.475-1.302-3.839-.053-.185-.106-.371-.278-.622-.505-1.059-1.01-2.118-1.142-3.283-.107-.371-.16-.556-.332-.808-.331-.807-.849-1.561-.929-2.541-.053-.186-.106-.371-.225-.437-.611-1.43-1.102-2.793-1.832-4.289-.557-1.244-.995-2.422-1.739-3.613-.172-.252-.225-.437-.397-.689-.557-1.244-1.42-2.501-1.91-3.864-.505-1.059-1.26-1.946-1.95-2.952-.293-.318-.717-.397-1.154-.172zM94.33 69.763c.12.066.358.199.345.503.053.186-.066.12-.132.239l-.12-.066c-.171-.252-.225-.438-.093-.676zm-1.3-2.435c.12.066.305.013.173.251-.053-.185-.172-.251-.172-.251l-1.035-1.509c-.226-.437-.45-.873-.491-1.363l.066-.12.12.067c.582.635 1.14 1.88 1.286 2.74.12.066.12.066.053.185zm-20.39-25.644.24.132s.118.066.052.186-.066.12-.251.172l-.12-.066-.119-.066c-.12-.066-.292-.318-.225-.437.066-.12.185-.053.423.08zm6.88 62.113c-.054-.185.065-.119.065-.119.12.066.12.066-.066.119z" fill="#385e80"/></g><defs><clipPath id="a"><path fill="#fff" transform="scale(1 -1) rotate(-29 -205.641 -53.182)" d="M0 0h121.612v121.612H0z"/></clipPath></defs></svg>