<svg width="214" height="41" fill="none" xmlns="http://www.w3.org/2000/svg"><g style="mix-blend-mode:luminosity"><path d="M21.352 22.984c0 2.176-.849 4.064-2.544 5.664-1.697 1.568-4 2.352-6.912 2.352H.806V6.904l.96-3.984c3.36-.384 6.24-.576 8.64-.576 3.2 0 5.697.832 7.488 2.496 1.825 1.632 2.736 3.6 2.736 5.904 0 2.272-.8 4.208-2.4 5.808 2.08 1.792 3.12 3.936 3.12 6.432zM11.175 19l-5.088-.192v7.632h5.809c1.311 0 2.335-.352 3.071-1.056.736-.736 1.104-1.632 1.104-2.688 0-1.536-.704-2.832-2.112-3.888-1.024.16-1.951.224-2.784.192zm-5.088-4.56h4.848c1.345 0 2.416-.384 3.216-1.152.8-.768 1.2-1.664 1.2-2.688 0-1.024-.432-1.888-1.296-2.592-.864-.736-2.127-1.104-3.791-1.104-1.12 0-2.512.064-4.176.192v7.344zm24.497 11.088c.736.736 1.728 1.104 2.976 1.104s2.24-.368 2.976-1.104c.736-.736 1.104-1.728 1.104-2.976v-2.304c0-1.248-.368-2.24-1.104-2.976-.736-.736-1.728-1.104-2.976-1.104s-2.24.368-2.976 1.104c-.736.736-1.104 1.728-1.104 2.976v2.304c0 1.248.368 2.24 1.104 2.976zm9.696 3.552c-1.76 1.504-4 2.256-6.72 2.256-2.72 0-4.96-.752-6.72-2.256-1.76-1.504-2.64-3.584-2.64-6.24v-2.88c0-2.656.88-4.736 2.64-6.24 1.76-1.504 4-2.256 6.72-2.256 2.72 0 4.96.752 6.72 2.256 1.76 1.504 2.64 3.584 2.64 6.24v2.88c0 2.656-.88 4.736-2.64 6.24zm12.077-3.552c.736.736 1.728 1.104 2.976 1.104s2.24-.368 2.976-1.104c.736-.736 1.104-1.728 1.104-2.976v-2.304c0-1.248-.368-2.24-1.104-2.976-.736-.736-1.728-1.104-2.976-1.104s-2.24.368-2.976 1.104c-.736.736-1.104 1.728-1.104 2.976v2.304c0 1.248.368 2.24 1.104 2.976zm9.696 3.552c-1.76 1.504-4 2.256-6.72 2.256-2.72 0-4.96-.752-6.72-2.256-1.76-1.504-2.64-3.584-2.64-6.24v-2.88c0-2.656.88-4.736 2.64-6.24 1.76-1.504 4-2.256 6.72-2.256 2.72 0 4.96.752 6.72 2.256 1.76 1.504 2.64 3.584 2.64 6.24v2.88c0 2.656-.88 4.736-2.64 6.24zm13.9-5.952-2.544-.192V31h-5.28V5.32L69.185.76h4.224v17.376h1.584c.8 0 1.392-.416 1.776-1.248l2.304-5.088h5.424l-4.032 9.216L85.073 31h-5.76l-3.36-7.872zM93.313 31h-5.28V16.36l.96-4.56h4.32V31zM90.624 1.864c.865 0 1.6.304 2.209.912.608.608.912 1.344.912 2.208 0 .832-.32 1.552-.96 2.16-.608.608-1.328.912-2.16.912a3.035 3.035 0 0 1-2.16-.864c-.577-.576-.88-1.296-.913-2.16l1.104-2.352c.704-.544 1.36-.816 1.968-.816zm23.842 15.888V31h-5.28V17.896c0-1.248-.608-1.872-1.824-1.872-1.28 0-2.848.704-4.704 2.112V31h-5.28V16.36l1.007-4.56h4.273v2.016c1.952-1.568 4.016-2.352 6.192-2.352 1.696 0 3.056.528 4.08 1.584s1.536 2.624 1.536 4.704zm15.318 8.4v-9.168c-1.152-.64-2.224-.96-3.216-.96-1.216 0-2.176.544-2.88 1.632-.672 1.088-1.008 2.368-1.008 3.84 0 1.44.336 2.688 1.008 3.744.704 1.024 1.68 1.536 2.928 1.536.992 0 2.048-.208 3.168-.624zm5.28-14.352v21.408c0 2.624-.816 4.56-2.448 5.808-1.632 1.28-3.744 1.92-6.336 1.92-2.688 0-5.248-.656-7.68-1.968l.48-4.608c2.432 1.28 4.736 1.92 6.912 1.92 2.528 0 3.792-1.072 3.792-3.216V30.28c-1.504.704-2.944 1.056-4.32 1.056-2.56 0-4.544-.96-5.952-2.88-1.408-1.952-2.112-4.272-2.112-6.96 0-2.72.72-5.072 2.16-7.056 1.44-1.984 3.408-2.976 5.904-2.976 1.568 0 3.168.48 4.8 1.44l.528-1.104h4.272z" fill="#203C83"/><path d="M141.597 24.952c.864 0 1.6.32 2.208.96.64.608.96 1.36.96 2.256 0 .864-.32 1.616-.96 2.256a3.007 3.007 0 0 1-2.208.912c-.896 0-1.664-.304-2.304-.912-.608-.64-.912-1.392-.912-2.256 0-.896.304-1.648.912-2.256.64-.64 1.408-.96 2.304-.96zM162.8 13.096l-.48 4.08c-1.824-.704-3.488-1.056-4.992-1.056-2.912 0-4.368 1.824-4.368 5.472 0 3.392 1.44 5.088 4.32 5.088 1.536 0 3.104-.4 4.704-1.2l.816 4.128c-2.176 1.152-4.352 1.728-6.528 1.728-2.784 0-4.944-.944-6.48-2.832-1.504-1.92-2.256-4.224-2.256-6.912 0-2.72.752-5.088 2.256-7.104 1.536-2.016 3.664-3.024 6.384-3.024 2.144 0 4.352.544 6.624 1.632zm8.917 12.432c.736.736 1.728 1.104 2.976 1.104s2.24-.368 2.976-1.104c.736-.736 1.104-1.728 1.104-2.976v-2.304c0-1.248-.368-2.24-1.104-2.976-.736-.736-1.728-1.104-2.976-1.104s-2.24.368-2.976 1.104c-.736.736-1.104 1.728-1.104 2.976v2.304c0 1.248.368 2.24 1.104 2.976zm9.696 3.552c-1.76 1.504-4 2.256-6.72 2.256-2.72 0-4.96-.752-6.72-2.256-1.76-1.504-2.64-3.584-2.64-6.24v-2.88c0-2.656.88-4.736 2.64-6.24 1.76-1.504 4-2.256 6.72-2.256 2.72 0 4.96.752 6.72 2.256 1.76 1.504 2.64 3.584 2.64 6.24v2.88c0 2.656-.88 4.736-2.64 6.24zm32.285-11.424V31h-5.28V17.8c0-1.184-.512-1.776-1.536-1.776-1.088 0-2.304.624-3.648 1.872V31h-5.28V17.608c0-1.056-.512-1.584-1.536-1.584-1.088 0-2.304.624-3.648 1.872V31h-5.28V16.36l1.008-4.56h4.272v2.016c2.048-1.568 3.888-2.352 5.52-2.352 1.952 0 3.36.896 4.224 2.688 1.888-1.792 3.872-2.688 5.952-2.688 1.504 0 2.752.512 3.744 1.536.992 1.024 1.488 2.576 1.488 4.656z" fill="#0EA2E2"/></g></svg>