<svg xmlns="http://www.w3.org/2000/svg" width="107" height="39" fill="none" xmlns:v="https://vecta.io/nano"><path d="M10.676 11.992c0 1.088-.424 2.032-1.272 2.832-.848.784-2 1.176-3.456 1.176H.404V3.952l.48-1.992 4.32-.288c1.6 0 2.848.416 3.744 1.248.912.816 1.368 1.8 1.368 2.952 0 1.136-.4 2.104-1.2 2.904 1.04.896 1.56 1.968 1.56 3.216zM5.588 10l-2.544-.096v3.816h2.904c.656 0 1.168-.176 1.536-.528a1.83 1.83 0 0 0 .552-1.344c0-.768-.352-1.416-1.056-1.944-.512.08-.976.112-1.392.096zM3.044 7.72h2.424c.672 0 1.208-.192 1.608-.576s.6-.832.6-1.344-.216-.944-.648-1.296c-.432-.368-1.064-.552-1.896-.552l-2.088.096V7.72zm12.248 5.544c.368.368.864.552 1.488.552s1.12-.184 1.488-.552.552-.864.552-1.488v-1.152c0-.624-.184-1.12-.552-1.488s-.864-.552-1.488-.552-1.12.184-1.488.552-.552.864-.552 1.488v1.152c0 .624.184 1.12.552 1.488zm4.848 1.776c-.88.752-2 1.128-3.36 1.128s-2.48-.376-3.36-1.128-1.32-1.792-1.32-3.12v-1.44c0-1.328.44-2.368 1.32-3.12s2-1.128 3.36-1.128 2.48.376 3.36 1.128 1.32 1.792 1.32 3.12v1.44c0 1.328-.44 2.368-1.32 3.12zm6.038-1.776c.368.368.864.552 1.488.552s1.12-.184 1.488-.552.552-.864.552-1.488v-1.152c0-.624-.184-1.12-.552-1.488s-.864-.552-1.488-.552-1.12.184-1.488.552-.552.864-.552 1.488v1.152c0 .624.184 1.12.552 1.488zm4.848 1.776c-.88.752-2 1.128-3.36 1.128s-2.48-.376-3.36-1.128-1.32-1.792-1.32-3.12v-1.44c0-1.328.44-2.368 1.32-3.12s2-1.128 3.36-1.128 2.48.376 3.36 1.128 1.32 1.792 1.32 3.12v1.44c0 1.328-.44 2.368-1.32 3.12zm6.95-2.976l-1.272-.096V16h-2.64V3.16l.528-2.28h2.112v8.688h.792c.4 0 .696-.208.888-.624L39.537 6.4h2.712l-2.016 4.608L42.537 16h-2.88l-1.68-3.936zM46.656 16h-2.64V8.68l.48-2.28h2.16V16zM45.312 1.432c.432 0 .8.152 1.104.456s.456.672.456 1.104a1.44 1.44 0 0 1-.48 1.08c-.304.304-.664.456-1.08.456s-.776-.144-1.08-.432a1.55 1.55 0 0 1-.456-1.08l.552-1.176c.352-.272.68-.408.984-.408zm11.921 7.944V16h-2.64V9.448c0-.624-.304-.936-.912-.936-.64 0-1.424.352-2.352 1.056V16h-2.64V8.68l.504-2.28h2.136v1.008c.976-.784 2.008-1.176 3.096-1.176.848 0 1.528.264 2.04.792s.768 1.312.768 2.352zm7.659 4.2V8.992c-.576-.32-1.112-.48-1.608-.48-.608 0-1.088.272-1.44.816-.336.544-.504 1.184-.504 1.92 0 .72.168 1.344.504 1.872.352.512.84.768 1.464.768.496 0 1.024-.104 1.584-.312zm2.64-7.176v10.704c0 1.312-.408 2.28-1.224 2.904-.816.64-1.872.96-3.168.96-1.344 0-2.624-.328-3.84-.984l.24-2.304c1.216.64 2.368.96 3.456.96 1.264 0 1.896-.536 1.896-1.608V15.64c-.752.352-1.472.528-2.16.528-1.28 0-2.272-.48-2.976-1.44-.704-.976-1.056-2.136-1.056-3.48 0-1.36.36-2.536 1.08-3.528s1.704-1.488 2.952-1.488c.784 0 1.584.24 2.4.72l.264-.552h2.136zM12.311 38h-2.2v-4.84h-4.72V38h-2.2V28l.4-1.8h1.8v5.26l.92-.2h3.8V26.2h2.2V38zm4.301-2.28c.307.307.72.46 1.24.46s.933-.153 1.24-.46.46-.72.46-1.24v-.96c0-.52-.153-.933-.46-1.24s-.72-.46-1.24-.46-.933.153-1.24.46-.46.72-.46 1.24v.96c0 .52.153.933.46 1.24zm4.04 1.48c-.733.627-1.667.94-2.8.94s-2.067-.313-2.8-.94-1.1-1.493-1.1-2.6v-1.2c0-1.107.367-1.973 1.1-2.6s1.667-.94 2.8-.94 2.067.313 2.8.94 1.1 1.493 1.1 2.6v1.2c0 1.107-.367 1.973-1.1 2.6zm3.512-1.82V31.9h-1.36v-.72l.52-1.18h.84v-.74l.42-1.66h1.78V30h1.54v1.9h-1.54v3.44c0 .6.2.9.6.9.227 0 .5-.073.82-.22l.14 1.72c-.613.267-1.147.4-1.6.4-.667 0-1.193-.24-1.58-.72-.387-.493-.58-1.173-.58-2.04zm6.925-2.36h2.68c0-.427-.12-.753-.36-.98-.227-.24-.527-.36-.9-.36-.36 0-.673.113-.94.34-.253.227-.413.56-.48 1zm4.4 2.58l.46 1.7c-1.08.56-2.167.84-3.26.84-1.227 0-2.167-.4-2.82-1.2-.64-.813-.96-1.8-.96-2.96 0-1.133.32-2.1.96-2.9.64-.813 1.573-1.22 2.8-1.22 1.053 0 1.867.32 2.44.96.573.627.86 1.407.86 2.34a4.44 4.44 0 0 1-.26 1.52l-1.38.14h-3.24c.173.947.8 1.42 1.88 1.42.773 0 1.613-.213 2.52-.64zm1.913-.08V27.3l.44-1.9h1.76v10.04c0 .24.067.427.2.56a.72.72 0 0 0 .5.18c.16 0 .3-.027.42-.08l.12 1.74c-.493.2-.96.3-1.4.3-.64 0-1.14-.22-1.5-.66-.36-.453-.54-1.107-.54-1.96zM49.9 38h-2.2l3.12-9.96c.213-.68.493-1.18.84-1.5s.853-.48 1.52-.48 1.173.16 1.52.48.627.82.84 1.5L58.66 38h-2.2l-1.14-3.66h-4.3L49.9 38zm3.62-9.5c-.067-.253-.18-.38-.34-.38s-.273.127-.34.38l-1.26 4.06.68-.12h2.48l-1.22-3.94zm10.677-2.84l-.28 1.6c-.2-.067-.4-.1-.6-.1-.507 0-.76.413-.76 1.24V30h1.68v1.9h-1.68V38h-2.2v-6.1h-1.16v-.72l.5-1.18h.66v-1.62c0-2.08.78-3.12 2.34-3.12.48 0 .98.133 1.5.4zm5.615 0l-.28 1.6c-.2-.067-.4-.1-.6-.1-.507 0-.76.413-.76 1.24V30h1.68v1.9h-1.68V38h-2.2v-6.1h-1.16v-.72l.5-1.18h.66v-1.62c0-2.08.78-3.12 2.34-3.12.48 0 .98.133 1.5.4zM73.206 38h-2.2v-6.1l.4-1.9h1.8v8zm-1.12-12.14c.36 0 .667.127.92.38a1.25 1.25 0 0 1 .38.92 1.2 1.2 0 0 1-.4.9 1.23 1.23 0 0 1-.9.38c-.347 0-.647-.12-.9-.36-.24-.24-.367-.54-.38-.9l.46-.98c.293-.227.567-.34.82-.34zm2.814 9.66V27.3l.44-1.9h1.76v10.04c0 .24.067.427.2.56a.72.72 0 0 0 .5.18c.16 0 .3-.027.42-.08l.12 1.74c-.493.2-.96.3-1.4.3-.64 0-1.14-.22-1.5-.66-.36-.453-.54-1.107-.54-1.96zM81.701 38h-2.2v-6.1l.4-1.9h1.8v8zm-1.12-12.14c.36 0 .667.127.92.38a1.25 1.25 0 0 1 .38.92 1.2 1.2 0 0 1-.4.9 1.23 1.23 0 0 1-.9.38c-.347 0-.647-.12-.9-.36-.24-.24-.367-.54-.38-.9l.46-.98c.293-.227.567-.34.82-.34zm7.114 10.08v-1.1c-.467-.133-.933-.2-1.4-.2-.653 0-.98.267-.98.8s.327.8.98.8c.507 0 .973-.1 1.4-.3zm2.2-3.46V38h-1.92l-.16-.46a3.4 3.4 0 0 1-1.92.6c-.907 0-1.6-.24-2.08-.72-.467-.48-.7-1.12-.7-1.92 0-.907.273-1.573.82-2 .547-.44 1.24-.66 2.08-.66.56 0 1.12.093 1.68.28v-.58c0-.52-.44-.78-1.32-.78-.733 0-1.533.173-2.4.52l-.46-1.68c1.16-.493 2.233-.74 3.22-.74.92 0 1.673.207 2.26.62.6.413.9 1.08.9 2zm2.536 2.9V31.9h-1.36v-.72l.52-1.18h.84v-.74l.42-1.66h1.78V30h1.54v1.9h-1.54v3.44c0 .6.2.9.6.9.227 0 .5-.073.82-.22l.14 1.72c-.613.267-1.147.4-1.6.4-.667 0-1.193-.24-1.58-.72-.387-.493-.58-1.173-.58-2.04zm6.925-2.36h2.68c0-.427-.12-.753-.36-.98-.226-.24-.526-.36-.9-.36-.36 0-.673.113-.94.34-.253.227-.413.56-.48 1zm4.4 2.58l.46 1.7c-1.08.56-2.166.84-3.26.84-1.227 0-2.166-.4-2.82-1.2-.64-.813-.96-1.8-.96-2.96 0-1.133.32-2.1.96-2.9.64-.813 1.573-1.22 2.8-1.22 1.054 0 1.867.32 2.44.96.574.627.86 1.407.86 2.34 0 .533-.086 1.04-.26 1.52l-1.38.14h-3.24c.173.947.8 1.42 1.88 1.42.774 0 1.614-.213 2.52-.64z" fill="#203c83"/><path d="M70.799 12.976c.432 0 .8.16 1.104.48.32.304.48.68.48 1.128 0 .432-.16.808-.48 1.128-.304.304-.672.456-1.104.456-.448 0-.832-.152-1.152-.456-.304-.32-.456-.696-.456-1.128a1.53 1.53 0 0 1 .456-1.128 1.57 1.57 0 0 1 1.152-.48zM81.4 7.048l-.24 2.04c-.912-.352-1.744-.528-2.496-.528-1.456 0-2.184.912-2.184 2.736 0 1.696.72 2.544 2.16 2.544.768 0 1.552-.2 2.352-.6l.408 2.064c-1.088.576-2.176.864-3.264.864-1.392 0-2.472-.472-3.24-1.416-.752-.96-1.128-2.112-1.128-3.456 0-1.36.376-2.544 1.128-3.552.768-1.008 1.832-1.512 3.192-1.512 1.072 0 2.176.272 3.312.816zm4.459 6.216c.368.368.864.552 1.488.552s1.12-.184 1.488-.552.552-.864.552-1.488v-1.152c0-.624-.184-1.12-.552-1.488s-.864-.552-1.488-.552-1.12.184-1.488.552-.552.864-.552 1.488v1.152c0 .624.184 1.12.552 1.488zm4.848 1.776c-.88.752-2 1.128-3.36 1.128s-2.48-.376-3.36-1.128-1.32-1.792-1.32-3.12v-1.44c0-1.328.44-2.368 1.32-3.12s2-1.128 3.36-1.128 2.48.376 3.36 1.128 1.32 1.792 1.32 3.12v1.44c0 1.328-.44 2.368-1.32 3.12zm16.142-5.712V16h-2.64V9.4c0-.592-.256-.888-.768-.888-.544 0-1.152.312-1.824.936V16h-2.64V9.304c0-.528-.256-.792-.768-.792-.544 0-1.152.312-1.824.936V16h-2.64V8.68l.504-2.28h2.136v1.008c1.024-.784 1.944-1.176 2.76-1.176.976 0 1.68.448 2.112 1.344.944-.896 1.936-1.344 2.976-1.344.752 0 1.376.256 1.872.768s.744 1.288.744 2.328z" fill="#0ea2e2"/></svg>