<svg width="119" height="74" fill="none" xmlns="http://www.w3.org/2000/svg"><g style="mix-blend-mode:luminosity" clip-path="url(#a)"><path d="M67.65 35.349c-.465 0-.92.137-1.306.394a2.328 2.328 0 0 0-.356 3.598 2.354 2.354 0 0 0 2.561.507 2.33 2.33 0 0 0 0-4.322 2.36 2.36 0 0 0-.9-.177z" fill="#00A991"/><path d="M51.416 32.005c.069-.174.11-.357.121-.542a1.187 1.187 0 0 0-.808-1.145 1.203 1.203 0 0 0-.493-.06 1.127 1.127 0 0 0-1.15.904l-2.664 8.1-3.056-8.161a1.198 1.198 0 0 0-1.151-.847 1.208 1.208 0 0 0-1.151.847l-3.027 8.16-2.661-8.1a1.126 1.126 0 0 0-1.15-.904 1.203 1.203 0 0 0-1.206.72 1.188 1.188 0 0 0-.096.485c.011.186.052.369.12.542l3.723 10.991c.066.254.221.476.438.626.217.149.48.216.742.188a1.207 1.207 0 0 0 1.211-.844l3.057-8.34 3.085 8.34a1.19 1.19 0 0 0 1.212.844 1.138 1.138 0 0 0 1.182-.816l3.722-10.99v.002zm-27.753 9.29-4.405-4.355 4.405-4.356a1.411 1.411 0 0 0 0-2.001 1.426 1.426 0 0 0-2.011 0l-5.36 5.332a1.464 1.464 0 0 0 0 2.05l5.36 5.332a1.424 1.424 0 0 0 1.55.307 1.424 1.424 0 0 0 .77-.766 1.409 1.409 0 0 0-.309-1.542zm-8.465.997v-10.72c0-.375-.15-.735-.416-1a1.426 1.426 0 0 0-2.012 0 1.412 1.412 0 0 0-.416 1v10.72c0 .375.15.735.416 1a1.426 1.426 0 0 0 2.428-1zM27.24 31.673v10.72c0 .376.15.736.417 1.001a1.427 1.427 0 0 0 2.012 0c.267-.265.416-.625.416-1v-10.72c0-.376-.15-.736-.416-1.002a1.427 1.427 0 0 0-2.012 0 1.412 1.412 0 0 0-.417 1.001zm27.184 0v10.72c0 .376.15.736.417 1.001a1.426 1.426 0 0 0 2.012 0c.267-.265.416-.625.416-1v-10.72c0-.376-.15-.736-.416-1.002a1.426 1.426 0 0 0-2.012 0 1.412 1.412 0 0 0-.417 1.001zm0 0v10.72c0 .376.15.736.417 1.001a1.426 1.426 0 0 0 2.012 0c.267-.265.416-.625.416-1v-10.72c0-.376-.15-.736-.416-1.002a1.426 1.426 0 0 0-2.012 0 1.412 1.412 0 0 0-.417 1.001zm0 0v10.72c0 .376.15.736.417 1.001a1.426 1.426 0 0 0 2.012 0c.267-.265.416-.625.416-1v-10.72c0-.376-.15-.736-.416-1.002a1.426 1.426 0 0 0-2.012 0 1.412 1.412 0 0 0-.417 1.001zm0 0v10.72c0 .376.15.736.417 1.001a1.426 1.426 0 0 0 2.012 0c.267-.265.416-.625.416-1v-10.72c0-.376-.15-.736-.416-1.002a1.426 1.426 0 0 0-2.012 0 1.412 1.412 0 0 0-.417 1.001z" fill="#252A31"/><path d="M64.237 49.437a2.122 2.122 0 0 0-1.264-.414 2.15 2.15 0 0 0-1.718.862 28.928 28.928 0 0 1-10.921 8.744A36.159 36.159 0 0 1 34.95 61.99c-8.27 0-16.025-2.646-21.837-7.451a25.261 25.261 0 0 1-6.5-7.95 20.775 20.775 0 0 1 0-19.18c2.289-4.473 6.105-8.293 11.036-11.041a35.552 35.552 0 0 1 17.31-4.36 36.142 36.142 0 0 1 15.405 3.378 28.89 28.89 0 0 1 10.93 8.78 2.14 2.14 0 0 0 3.622-.296 2.113 2.113 0 0 0-.184-2.214 33.196 33.196 0 0 0-12.532-10.102 40.469 40.469 0 0 0-17.24-3.79c-9.264 0-17.991 2.995-24.576 8.429a29.502 29.502 0 0 0-7.573 9.289 25 25 0 0 0 0 23.034c2.677 5.224 7.087 9.656 12.75 12.816a39.86 39.86 0 0 0 19.398 4.903 40.483 40.483 0 0 0 17.203-3.773 33.244 33.244 0 0 0 12.525-10.057 2.117 2.117 0 0 0-.45-2.969" fill="#00A991"/><path d="M83.31 32.767a4.132 4.132 0 0 1 2.73 1.023c.245.182.542.283.849.29a1.2 1.2 0 0 0 1.13-.756c.059-.15.087-.31.082-.47a1.222 1.222 0 0 0-.406-.888 6.178 6.178 0 0 0-4.385-1.67c-3.925 0-6.666 2.767-6.666 6.728 0 3.962 2.742 6.728 6.666 6.728a6.166 6.166 0 0 0 4.378-1.663 1.24 1.24 0 0 0 .331-1.364 1.19 1.19 0 0 0-1.13-.756 1.516 1.516 0 0 0-.87.305 4.137 4.137 0 0 1-2.709 1.01c-2.35 0-3.993-1.752-3.993-4.26 0-2.507 1.642-4.257 3.993-4.257m13.244 8.583c-2.652 0-4.04-2.176-4.04-4.325 0-2.839 2.033-4.324 4.04-4.324 2.653 0 4.041 2.175 4.041 4.324 0 2.84-2.033 4.325-4.041 4.325zm0-11.052a6.612 6.612 0 0 0-4.798 1.937 6.548 6.548 0 0 0-1.906 4.79 6.641 6.641 0 0 0 1.964 4.717 6.708 6.708 0 0 0 4.74 1.954 6.733 6.733 0 0 0 4.74-1.954 6.664 6.664 0 0 0 1.964-4.717 6.517 6.517 0 0 0-.46-2.589 6.563 6.563 0 0 0-3.646-3.658 6.612 6.612 0 0 0-2.598-.48zm21.178.075a1.284 1.284 0 0 0-1.158.776l-4.143 8.632-.037-.076-4.152-8.574a1.262 1.262 0 0 0-1.168-.758 1.24 1.24 0 0 0-1.159.766 1.208 1.208 0 0 0-.092.478v10.796a1.255 1.255 0 0 0 1.26 1.254 1.268 1.268 0 0 0 .891-.367 1.248 1.248 0 0 0 .369-.886v-5.737l2.991 6.306a1.137 1.137 0 0 0 1.098.694 1.187 1.187 0 0 0 1.101-.7l2.949-6.299v5.755c0 .332.133.65.369.886a1.265 1.265 0 0 0 1.782 0c.237-.235.369-.554.369-.887V31.637a1.195 1.195 0 0 0-1.27-1.264z" fill="#252A31"/></g><defs><clipPath id="a"><path fill="#fff" d="M0 0h119v74H0z"/></clipPath></defs></svg>