<?xml version="1.0" encoding="UTF-8"?>
<svg fill="#7166EE" width="100pt" height="100pt" version="1.1" viewBox="0 0 100 100" xmlns="http://www.w3.org/2000/svg">
 <path d="m98.648 32.836c-1.2344 4.2734-3.5312 8.168-6.6758 11.316l-45.652 45.656c-6.6758 6.6719-16.402 9.2773-25.52 6.8359-9.1172-2.4453-16.238-9.5664-18.68-18.684-2.4453-9.1172 0.16406-18.844 6.8359-25.516l28.223-28.223c0.023437-0.023437 0.046874-0.042968 0.070312-0.0625 0.023438-0.019531 0.039062-0.046875 0.0625-0.070312l16.375-16.367c4.5469-4.5508 11.172-6.3242 17.387-4.6602 6.2109 1.6641 11.062 6.5156 12.727 12.727 1.6641 6.2109-0.11328 12.84-4.6602 17.387l-40.703 40.707c-0.56641 0.58594-1.3477 0.92578-2.168 0.93359-0.81641 0.007813-1.6016-0.31641-2.1836-0.89453-0.57813-0.57812-0.89844-1.3633-0.89063-2.1836 0.007813-0.81641 0.34375-1.5977 0.93359-2.168l40.703-40.703c4.5273-4.668 4.4727-12.105-0.125-16.707-4.5977-4.5977-12.039-4.6562-16.707-0.12891l-16.379 16.379c-0.023438 0.023438-0.046875 0.042969-0.070313 0.0625-0.023437 0.019532-0.039062 0.046875-0.0625 0.070313l-28.223 28.223 0.003906-0.003906c-5.0195 5.1562-6.9375 12.582-5.043 19.523 1.8945 6.9414 7.3164 12.363 14.258 14.258 6.9414 1.8906 14.367-0.027344 19.523-5.043l45.66-45.656c2.4141-2.418 4.1797-5.4102 5.125-8.6953 0.46484-1.6172 2.1523-2.5508 3.7695-2.0859s2.5508 2.1562 2.0859 3.7734z"/>
</svg>
