<?xml version="1.0" encoding="utf-8"?>
<!-- Generator: Adobe Illustrator 27.2.0, SVG Export Plug-In . SVG Version: 6.00 Build 0)  -->
<svg version="1.1" id="Calque_1" xmlns="http://www.w3.org/2000/svg" xmlns:xlink="http://www.w3.org/1999/xlink" x="0px" y="0px"
	 viewBox="0 0 86.4 86.4" style="enable-background:new 0 0 86.4 86.4;" xml:space="preserve">
<style type="text/css">
	.st0{fill-rule:evenodd;clip-rule:evenodd;fill:#7166EE;}
</style>
<path class="st0" d="M85.4,15.7l-6.9,6.9L63.8,7.9l6.9-6.9c1.4-1.4,3.7-1.4,5.2,0l9.5,9.5C86.8,12,86.8,14.3,85.4,15.7L85.4,15.7z
	 M9,63.8L0,86.4l22.7-9c-1.3-3-3.2-5.7-5.6-8.1C14.7,67,12,65.1,9,63.8L9,63.8z M12,59.8c3.2,1.5,6,3.6,8.6,6.1s4.6,5.4,6.1,8.6
	L75.1,26L60.4,11.4L12,59.8z"/>
</svg>
