<?xml version="1.0" encoding="utf-8"?>
<!-- Generator: Adobe Illustrator 27.2.0, SVG Export Plug-In . SVG Version: 6.00 Build 0)  -->
<svg version="1.1" id="Calque_1" xmlns="http://www.w3.org/2000/svg" xmlns:xlink="http://www.w3.org/1999/xlink" x="0px" y="0px"
	 viewBox="0 0 68 84" style="enable-background:new 0 0 68 84;" xml:space="preserve">
<style type="text/css">
	.st0{fill:#FFFFFF;}
</style>
<path class="st0" d="M33.8,0c-0.2,0-0.4,0.1-0.6,0.1l-32,14C0.5,14.4,0,15.2,0,16c0,21.5,1.3,33.9,6.2,43.4
	c5,9.4,13.4,15.4,26.7,24.3c0.6,0.4,1.5,0.4,2.2,0c13.4-8.9,21.7-14.9,26.7-24.3C66.7,49.9,68,37.5,68,16c0-0.8-0.5-1.6-1.2-1.8
	l-32-14C34.5,0,34.2,0,33.8,0L33.8,0z M34,4.2L64,17.2c0,20.5-1.4,32-5.7,40.3C54,65.7,46.5,71.2,34,79.6
	c-12.5-8.4-19.9-13.9-24.2-22C5.5,49.3,4.1,37.7,4,17.2L34,4.2z M34,21c-2.8,0-5,2.2-5,5l1,18c0,2.2,1.8,4,4,4c2.2,0,4-1.8,4-4l1-18
	C39,23.3,36.7,21,34,21z M34,51c-2.8,0-5,2.2-5,5c0,2.8,2.3,5,5,5c2.7,0,5-2.2,5-5S36.7,51,34,51z"/>
</svg>
