<svg xmlns="http://www.w3.org/2000/svg" data-name="Design Convert" viewBox="0 0 64 64"><defs></defs><path d="M47 57H17a5 5 0 0 1-5-5V37h-1.24a3.63 3.63 0 0 1-3.29-2.36 5.27 5.27 0 0 1 .76-5.59l17.06-18.93a8.78 8.78 0 0 1 13.42 0l17.06 18.93a5.27 5.27 0 0 1 .76 5.59A3.63 3.63 0 0 1 53.24 37H52v15a5 5 0 0 1-5 5ZM32 9a7 7 0 0 0-5.23 2.46L9.71 30.39a3.35 3.35 0 0 0-.42 3.44A1.78 1.78 0 0 0 10.76 35H13a1 1 0 0 1 1 1v16a3 3 0 0 0 3 3h30a3 3 0 0 0 3-3V36a1 1 0 0 1 1-1h2.24a1.78 1.78 0 0 0 1.47-1.17 3.35 3.35 0 0 0-.42-3.44L37.23 11.46A7 7 0 0 0 32 9Z" fill="#FFF"/><path d="M38 57H26a1 1 0 0 1-1-1V40a7 7 0 0 1 14 0v16a1 1 0 0 1-1 1Zm-11-2h10V40a5 5 0 0 0-10 0Z" fill="#FFF" /></svg>