<svg xmlns="http://www.w3.org/2000/svg" width="800" height="800" viewBox="0 0 19 19" fill="#6b7280"><path fill-rule="evenodd" d="m10.960546 9.843246 2.438561 1.407905c.238046.137435.315053.449709.18102.681862-.138071.239146-.43606.325591-.68102.184163l-2.479874-1.431756C10.165323 10.8826 9.846372 11 9.5 11 8.671573 11 8 10.328427 8 9.5c0-.653109.417404-1.208729 1-1.414647v-4.58193C9 3.22539 9.231934 3 9.5 3c.276142 0 .5.232903.5.503423v4.58193c.582596.205918 1 .761538 1 1.414647 0 .1181-.013649.233013-.039454.343246ZM9.5 19c5.246705 0 9.5-4.253295 9.5-9.5S14.746705 0 9.5 0 0 4.253295 0 9.5 4.253295 19 9.5 19Zm0-1c4.69442 0 8.5-3.80558 8.5-8.5S14.19442 1 9.5 1 1 4.80558 1 9.5 4.80558 18 9.5 18Z"/></svg>