<svg xmlns="http://www.w3.org/2000/svg" width="20" height="17" viewBox="0 0 20 17">
  <path id="Icons-heart-stroked" d="M10,17,1.547,8.974a5.129,5.129,0,0,1,.1-7.435,5.827,5.827,0,0,1,7.888,0L10,1.982l.465-.441.634.622-.634-.625a5.83,5.83,0,0,1,7.892,0l.086.083a5.138,5.138,0,0,1-.085,7.446ZM5.591,1.75A3.89,3.89,0,0,0,2.917,2.792a3.421,3.421,0,0,0-.066,4.96l.069.066L10,14.541l7.084-6.723a3.428,3.428,0,0,0,.055-4.974,3.967,3.967,0,0,0-5.4-.053h0L10,4.442,8.261,2.791A3.886,3.886,0,0,0,5.591,1.75" transform="translate(-0.001 0)" fill="#fff"/>
</svg>
